<?xml version="1.0" encoding="UTF-8" standalone="no"?>
<!DOCTYPE svg PUBLIC "-//W3C//DTD SVG 1.1//EN" "http://www.w3.org/Graphics/SVG/1.1/DTD/svg11.dtd">
<svg width="100%" height="100%" viewBox="0 0 1024 1024" version="1.1" xmlns="http://www.w3.org/2000/svg" xmlns:xlink="http://www.w3.org/1999/xlink" xml:space="preserve" xmlns:serif="http://www.serif.com/" style="fill-rule:evenodd;clip-rule:evenodd;stroke-linejoin:round;stroke-miterlimit:2;">
    <g>
        <g transform="matrix(1,0,0,1,0.258694,294.176)">
            <path d="M165.952,301.466L485.224,97.46L539.312,97.46C605.124,137.283 737.601,228.969 857.398,301.466L857.398,395.87L536.788,603.174L485.224,603.174L165.952,395.87L165.952,301.466Z" style="fill:rgb(189,234,255);"/>
            <path d="M866.002,315.599C866.002,304.29 860.251,293.756 850.737,287.641C799.22,254.531 630.626,146.172 552.053,95.671C527.089,79.627 495.052,79.655 470.117,95.743C391.801,146.271 224.004,254.533 172.697,287.635C163.211,293.755 157.48,304.273 157.48,315.562C157.48,334.882 157.48,365.308 157.48,384.633C157.48,395.928 163.217,406.45 172.712,412.569C224.043,445.649 391.856,553.797 470.15,604.255C495.07,620.314 527.072,620.342 552.02,604.326C630.572,553.896 799.181,445.651 850.722,412.562C860.245,406.449 866.002,395.911 866.002,384.595L866.002,315.599ZM840.234,399.376C845.771,395.805 849.116,389.668 849.116,383.08C849.116,368.393 849.116,343.594 849.116,343.594C849.116,343.594 643.733,475.447 553.429,533.421C527.988,549.754 495.359,549.753 469.92,533.417C379.632,475.441 174.302,343.594 174.302,343.594L174.302,383.081C174.302,389.669 177.647,395.805 183.183,399.376C225.243,426.501 405.451,542.721 479.606,590.545C499.132,603.137 524.219,603.138 543.746,590.548C617.913,542.726 798.165,426.501 840.234,399.376ZM841.922,328.197C846.478,325.272 849.234,320.233 849.239,314.82C849.243,309.407 846.496,304.362 841.946,301.43C783.102,263.508 615.12,155.25 544.403,109.677C524.915,97.117 499.888,97.096 480.378,109.621C409.418,155.176 240.59,263.562 181.548,301.466C176.992,304.391 174.236,309.43 174.232,314.843C174.227,320.257 176.974,325.301 181.524,328.233C240.368,366.155 408.351,474.413 479.068,519.987C498.555,532.546 523.582,532.568 543.092,520.043C614.053,474.487 782.88,366.102 841.922,328.197Z" style="fill:rgb(0,168,255);"/>
        </g>
        <g transform="matrix(1,0,0,1,-0.0683077,144.433)">
            <path d="M165.952,301.466L485.224,97.46L539.312,97.46C605.124,137.283 737.601,228.969 857.398,301.466L857.398,395.87L536.788,603.174L485.224,603.174L165.952,395.87L165.952,301.466Z" style="fill:rgb(221,189,255);"/>
            <path d="M866.002,315.599C866.002,304.29 860.251,293.756 850.737,287.641C799.22,254.531 630.626,146.172 552.053,95.671C527.089,79.627 495.052,79.655 470.117,95.743C391.801,146.271 224.004,254.533 172.697,287.635C163.211,293.755 157.48,304.273 157.48,315.562C157.48,334.882 157.48,365.308 157.48,384.633C157.48,395.928 163.217,406.45 172.712,412.569C224.043,445.649 391.856,553.797 470.15,604.255C495.07,620.314 527.072,620.342 552.02,604.326C630.572,553.896 799.181,445.651 850.722,412.562C860.245,406.449 866.002,395.911 866.002,384.595L866.002,315.599ZM840.234,399.376C845.771,395.805 849.116,389.668 849.116,383.08C849.116,368.393 849.116,343.594 849.116,343.594C849.116,343.594 643.733,475.447 553.429,533.421C527.988,549.754 495.359,549.753 469.92,533.417C379.632,475.441 174.302,343.594 174.302,343.594L174.302,383.081C174.302,389.669 177.647,395.805 183.183,399.376C225.243,426.501 405.451,542.721 479.606,590.545C499.132,603.137 524.219,603.138 543.746,590.548C617.913,542.726 798.165,426.501 840.234,399.376ZM841.922,328.197C846.478,325.272 849.234,320.233 849.239,314.82C849.243,309.407 846.496,304.362 841.946,301.43C783.102,263.508 615.12,155.25 544.403,109.677C524.915,97.117 499.888,97.096 480.378,109.621C409.418,155.176 240.59,263.562 181.548,301.466C176.992,304.391 174.236,309.43 174.232,314.843C174.227,320.257 176.974,325.301 181.524,328.233C240.368,366.155 408.351,474.413 479.068,519.987C498.555,532.546 523.582,532.568 543.092,520.043C614.053,474.487 782.88,366.102 841.922,328.197Z" style="fill:rgb(124,0,255);"/>
        </g>
        <g>
            <path d="M165.952,301.466L485.224,97.46L539.312,97.46C605.124,137.283 737.601,228.969 857.398,301.466L857.398,395.87L536.788,603.174L485.224,603.174L165.952,395.87L165.952,301.466Z" style="fill:rgb(255,189,247);"/>
            <path d="M866.002,315.599C866.002,304.29 860.251,293.756 850.737,287.641C799.22,254.531 630.626,146.172 552.053,95.671C527.089,79.627 495.052,79.655 470.117,95.743C391.801,146.271 224.004,254.533 172.697,287.635C163.211,293.755 157.48,304.273 157.48,315.562C157.48,334.882 157.48,365.308 157.48,384.633C157.48,395.928 163.217,406.45 172.712,412.569C224.043,445.649 391.856,553.797 470.15,604.255C495.07,620.314 527.072,620.342 552.02,604.326C630.572,553.896 799.181,445.651 850.722,412.562C860.245,406.449 866.002,395.911 866.002,384.595L866.002,315.599ZM840.234,399.376C845.771,395.805 849.116,389.668 849.116,383.08C849.116,368.393 849.116,343.594 849.116,343.594C849.116,343.594 643.733,475.447 553.429,533.421C527.988,549.754 495.359,549.753 469.92,533.417C379.632,475.441 174.302,343.594 174.302,343.594L174.302,383.081C174.302,389.669 177.647,395.805 183.183,399.376C225.243,426.501 405.451,542.721 479.606,590.545C499.132,603.137 524.219,603.138 543.746,590.548C617.913,542.726 798.165,426.501 840.234,399.376ZM841.922,328.197C846.478,325.272 849.234,320.233 849.239,314.82C849.243,309.407 846.496,304.362 841.946,301.43C783.102,263.508 615.12,155.25 544.403,109.677C524.915,97.117 499.888,97.096 480.378,109.621C409.418,155.176 240.59,263.562 181.548,301.466C176.992,304.391 174.236,309.43 174.232,314.843C174.227,320.257 176.974,325.301 181.524,328.233C240.368,366.155 408.351,474.413 479.068,519.987C498.555,532.546 523.582,532.568 543.092,520.043C614.053,474.487 782.88,366.102 841.922,328.197Z" style="fill:rgb(255,0,223);"/>
        </g>
        <g transform="matrix(-1,0,0,1,1020.29,0)">
            <g transform="matrix(0.978089,0,0,4.88428,4.25156,-3010.74)">
                <path d="M218.963,762.035C223.035,761.564 224.431,760.521 222.079,759.706C222.079,759.706 222.079,759.706 222.079,759.706C219.728,758.89 214.52,758.611 210.448,759.082C208.855,759.266 207.637,759.407 207.637,759.407C207.637,759.407 207.637,759.407 207.637,759.407C195.844,760.87 188.669,763.451 188.669,766.229L188.669,775.441C188.669,776.383 192.482,777.146 197.184,777.146C197.184,777.146 197.185,777.146 197.185,777.146C201.887,777.146 205.699,776.383 205.699,775.441L205.699,766.13C205.699,764.596 209.651,763.171 216.152,762.36C216.152,762.36 216.152,762.36 216.152,762.36C216.152,762.36 217.37,762.219 218.963,762.035Z" style="fill:rgb(0,111,255);"/>
            </g>
            <g transform="matrix(0.978089,0,0,4.88428,61.4571,-2973.86)">
                <path d="M218.963,762.035C223.035,761.564 224.431,760.521 222.079,759.706C222.079,759.706 222.079,759.706 222.079,759.706C219.728,758.89 214.52,758.611 210.448,759.082C208.855,759.266 207.637,759.407 207.637,759.407C207.637,759.407 207.637,759.407 207.637,759.407C195.844,760.87 188.669,763.451 188.669,766.229L188.669,775.441C188.669,776.383 192.482,777.146 197.184,777.146C197.184,777.146 197.185,777.146 197.185,777.146C201.887,777.146 205.699,776.383 205.699,775.441L205.699,766.13C205.699,764.596 209.651,763.171 216.152,762.36C216.152,762.36 216.152,762.36 216.152,762.36C216.152,762.36 217.37,762.219 218.963,762.035Z" style="fill:rgb(0,111,255);"/>
            </g>
            <g transform="matrix(0.978089,0,0,4.88428,118.663,-2937.32)">
                <path d="M218.963,762.035C223.035,761.564 224.431,760.521 222.079,759.706C222.079,759.706 222.079,759.706 222.079,759.706C219.728,758.89 214.52,758.611 210.448,759.082C208.855,759.266 207.637,759.407 207.637,759.407C207.637,759.407 207.637,759.407 207.637,759.407C195.844,760.87 188.669,763.451 188.669,766.229L188.669,775.441C188.669,776.383 192.482,777.146 197.184,777.146C197.184,777.146 197.185,777.146 197.185,777.146C201.887,777.146 205.699,776.383 205.699,775.441L205.699,766.13C205.699,764.596 209.651,763.171 216.152,762.36C216.152,762.36 216.152,762.36 216.152,762.36C216.152,762.36 217.37,762.219 218.963,762.035Z" style="fill:rgb(0,111,255);"/>
            </g>
            <g transform="matrix(0.978089,0,0,4.88428,180.259,-2897.13)">
                <path d="M218.963,762.035C223.035,761.564 224.431,760.521 222.079,759.706C222.079,759.706 222.079,759.706 222.079,759.706C219.728,758.89 214.52,758.611 210.448,759.082C208.855,759.266 207.637,759.407 207.637,759.407C207.637,759.407 207.637,759.407 207.637,759.407C195.844,760.87 188.669,763.451 188.669,766.229L188.669,775.441C188.669,776.383 192.482,777.146 197.184,777.146C197.184,777.146 197.185,777.146 197.185,777.146C201.887,777.146 205.699,776.383 205.699,775.441L205.699,766.13C205.699,764.596 209.651,763.171 216.152,762.36C216.152,762.36 216.152,762.36 216.152,762.36C216.152,762.36 217.37,762.219 218.963,762.035Z" style="fill:rgb(0,111,255);"/>
            </g>
            <g transform="matrix(0.978089,0,0,4.88428,241.856,-2856.98)">
                <path d="M218.963,762.035C223.035,761.564 224.431,760.521 222.079,759.706C222.079,759.706 222.079,759.706 222.079,759.706C219.728,758.89 214.52,758.611 210.448,759.082C208.855,759.266 207.637,759.407 207.637,759.407C207.637,759.407 207.637,759.407 207.637,759.407C195.844,760.87 188.669,763.451 188.669,766.229L188.669,775.441C188.669,776.383 192.482,777.146 197.184,777.146C197.184,777.146 197.185,777.146 197.185,777.146C201.887,777.146 205.699,776.383 205.699,775.441L205.699,766.13C205.699,764.596 209.651,763.171 216.152,762.36C216.152,762.36 216.152,762.36 216.152,762.36C216.152,762.36 217.37,762.219 218.963,762.035Z" style="fill:rgb(0,111,255);"/>
            </g>
        </g>
        <g transform="matrix(-1,0,0,1,1020.29,-151.867)">
            <g transform="matrix(0.978089,0,0,4.88428,4.25156,-3010.74)">
                <path d="M218.963,762.035C223.035,761.564 224.431,760.521 222.079,759.706C222.079,759.706 222.079,759.706 222.079,759.706C219.728,758.89 214.52,758.611 210.448,759.082C208.855,759.266 207.637,759.407 207.637,759.407C207.637,759.407 207.637,759.407 207.637,759.407C195.844,760.87 188.669,763.451 188.669,766.229L188.669,779.126C188.669,780.068 192.482,780.831 197.184,780.831C197.184,780.831 197.185,780.831 197.185,780.831C201.887,780.831 205.699,780.068 205.699,779.126L205.699,766.13C205.699,764.596 209.651,763.171 216.152,762.36C216.152,762.36 216.152,762.36 216.152,762.36C216.152,762.36 217.37,762.219 218.963,762.035Z" style="fill:url(#_Linear1);"/>
            </g>
            <g transform="matrix(0.978089,0,0,4.88428,61.4571,-2973.86)">
                <path d="M218.963,762.035C223.035,761.564 224.431,760.521 222.079,759.706C222.079,759.706 222.079,759.706 222.079,759.706C219.728,758.89 214.52,758.611 210.448,759.082C208.855,759.266 207.637,759.407 207.637,759.407C207.637,759.407 207.637,759.407 207.637,759.407C195.844,760.87 188.669,763.451 188.669,766.229L188.669,779.126C188.669,780.068 192.482,780.831 197.184,780.831C197.184,780.831 197.185,780.831 197.185,780.831C201.887,780.831 205.699,780.068 205.699,779.126L205.699,766.13C205.699,764.596 209.651,763.171 216.152,762.36C216.152,762.36 216.152,762.36 216.152,762.36C216.152,762.36 217.37,762.219 218.963,762.035Z" style="fill:url(#_Linear2);"/>
            </g>
            <g transform="matrix(0.978089,0,0,4.88428,118.663,-2937.32)">
                <path d="M218.963,762.035C223.035,761.564 224.431,760.521 222.079,759.706C222.079,759.706 222.079,759.706 222.079,759.706C219.728,758.89 214.52,758.611 210.448,759.082C208.855,759.266 207.637,759.407 207.637,759.407C207.637,759.407 207.637,759.407 207.637,759.407C195.844,760.87 188.669,763.451 188.669,766.229L188.669,779.126C188.669,780.068 192.482,780.831 197.184,780.831C197.184,780.831 197.185,780.831 197.185,780.831C201.887,780.831 205.699,780.068 205.699,779.126L205.699,766.13C205.699,764.596 209.651,763.171 216.152,762.36C216.152,762.36 216.152,762.36 216.152,762.36C216.152,762.36 217.37,762.219 218.963,762.035Z" style="fill:url(#_Linear3);"/>
            </g>
            <g transform="matrix(0.978089,0,0,4.88428,180.259,-2897.13)">
                <path d="M218.963,762.035C223.035,761.564 224.431,760.521 222.079,759.706C222.079,759.706 222.079,759.706 222.079,759.706C219.728,758.89 214.52,758.611 210.448,759.082C208.855,759.266 207.637,759.407 207.637,759.407C207.637,759.407 207.637,759.407 207.637,759.407C195.844,760.87 188.669,763.451 188.669,766.229L188.669,779.126C188.669,780.068 192.482,780.831 197.184,780.831C197.184,780.831 197.185,780.831 197.185,780.831C201.887,780.831 205.699,780.068 205.699,779.126L205.699,766.13C205.699,764.596 209.651,763.171 216.152,762.36C216.152,762.36 216.152,762.36 216.152,762.36C216.152,762.36 217.37,762.219 218.963,762.035Z" style="fill:url(#_Linear4);"/>
            </g>
            <g transform="matrix(0.978089,0,0,4.88428,241.856,-2856.98)">
                <path d="M218.963,762.035C223.035,761.564 224.431,760.521 222.079,759.706C222.079,759.706 222.079,759.706 222.079,759.706C219.728,758.89 214.52,758.611 210.448,759.082C208.855,759.266 207.637,759.407 207.637,759.407C207.637,759.407 207.637,759.407 207.637,759.407C195.844,760.87 188.669,763.451 188.669,766.229L188.669,779.126C188.669,780.068 192.482,780.831 197.184,780.831C197.184,780.831 197.185,780.831 197.185,780.831C201.887,780.831 205.699,780.068 205.699,779.126L205.699,766.13C205.699,764.596 209.651,763.171 216.152,762.36C216.152,762.36 216.152,762.36 216.152,762.36C216.152,762.36 217.37,762.219 218.963,762.035Z" style="fill:url(#_Linear5);"/>
            </g>
        </g>
        <g transform="matrix(-1,0,0,1,1020.29,-301.867)">
            <g transform="matrix(0.978089,0,0,4.88428,4.25156,-3010.74)">
                <path d="M218.963,762.035C223.035,761.564 224.431,760.521 222.079,759.706C222.079,759.706 222.079,759.706 222.079,759.706C219.728,758.89 214.52,758.611 210.448,759.082C208.855,759.266 207.637,759.407 207.637,759.407C207.637,759.407 207.637,759.407 207.637,759.407C195.844,760.87 188.669,763.451 188.669,766.229L188.669,779.126C188.669,780.068 192.482,780.831 197.184,780.831C197.184,780.831 197.185,780.831 197.185,780.831C201.887,780.831 205.699,780.068 205.699,779.126L205.699,766.13C205.699,764.596 209.651,763.171 216.152,762.36C216.152,762.36 216.152,762.36 216.152,762.36C216.152,762.36 217.37,762.219 218.963,762.035Z" style="fill:url(#_Linear6);"/>
            </g>
            <g transform="matrix(0.978089,0,0,4.88428,61.4571,-2973.86)">
                <path d="M218.963,762.035C223.035,761.564 224.431,760.521 222.079,759.706C222.079,759.706 222.079,759.706 222.079,759.706C219.728,758.89 214.52,758.611 210.448,759.082C208.855,759.266 207.637,759.407 207.637,759.407C207.637,759.407 207.637,759.407 207.637,759.407C195.844,760.87 188.669,763.451 188.669,766.229L188.669,779.126C188.669,780.068 192.482,780.831 197.184,780.831C197.184,780.831 197.185,780.831 197.185,780.831C201.887,780.831 205.699,780.068 205.699,779.126L205.699,766.13C205.699,764.596 209.651,763.171 216.152,762.36C216.152,762.36 216.152,762.36 216.152,762.36C216.152,762.36 217.37,762.219 218.963,762.035Z" style="fill:url(#_Linear7);"/>
            </g>
            <g transform="matrix(0.978089,0,0,4.88428,118.663,-2937.32)">
                <path d="M218.963,762.035C223.035,761.564 224.431,760.521 222.079,759.706C222.079,759.706 222.079,759.706 222.079,759.706C219.728,758.89 214.52,758.611 210.448,759.082C208.855,759.266 207.637,759.407 207.637,759.407C207.637,759.407 207.637,759.407 207.637,759.407C195.844,760.87 188.669,763.451 188.669,766.229L188.669,779.126C188.669,780.068 192.482,780.831 197.184,780.831C197.184,780.831 197.185,780.831 197.185,780.831C201.887,780.831 205.699,780.068 205.699,779.126L205.699,766.13C205.699,764.596 209.651,763.171 216.152,762.36C216.152,762.36 216.152,762.36 216.152,762.36C216.152,762.36 217.37,762.219 218.963,762.035Z" style="fill:url(#_Linear8);"/>
            </g>
            <g transform="matrix(0.978089,0,0,4.88428,180.259,-2897.13)">
                <path d="M218.963,762.035C223.035,761.564 224.431,760.521 222.079,759.706C222.079,759.706 222.079,759.706 222.079,759.706C219.728,758.89 214.52,758.611 210.448,759.082C208.855,759.266 207.637,759.407 207.637,759.407C207.637,759.407 207.637,759.407 207.637,759.407C195.844,760.87 188.669,763.451 188.669,766.229L188.669,779.126C188.669,780.068 192.482,780.831 197.184,780.831C197.184,780.831 197.185,780.831 197.185,780.831C201.887,780.831 205.699,780.068 205.699,779.126L205.699,766.13C205.699,764.596 209.651,763.171 216.152,762.36C216.152,762.36 216.152,762.36 216.152,762.36C216.152,762.36 217.37,762.219 218.963,762.035Z" style="fill:url(#_Linear9);"/>
            </g>
            <g transform="matrix(0.978089,0,0,4.88428,241.856,-2856.98)">
                <path d="M218.963,762.035C223.035,761.564 224.431,760.521 222.079,759.706C222.079,759.706 222.079,759.706 222.079,759.706C219.728,758.89 214.52,758.611 210.448,759.082C208.855,759.266 207.637,759.407 207.637,759.407C207.637,759.407 207.637,759.407 207.637,759.407C195.844,760.87 188.669,763.451 188.669,766.229L188.669,779.126C188.669,780.068 192.482,780.831 197.184,780.831C197.184,780.831 197.185,780.831 197.185,780.831C201.887,780.831 205.699,780.068 205.699,779.126L205.699,766.13C205.699,764.596 209.651,763.171 216.152,762.36C216.152,762.36 216.152,762.36 216.152,762.36C216.152,762.36 217.37,762.219 218.963,762.035Z" style="fill:url(#_Linear10);"/>
            </g>
        </g>
        <g transform="matrix(1,0,0,1,5.28175,0)">
            <g transform="matrix(0.978089,0,0,4.88428,4.25156,-3010.74)">
                <path d="M218.963,762.035C223.035,761.564 224.431,760.521 222.079,759.706C222.079,759.706 222.079,759.706 222.079,759.706C219.728,758.89 214.52,758.611 210.448,759.082C208.855,759.266 207.637,759.407 207.637,759.407C207.637,759.407 207.637,759.407 207.637,759.407C195.844,760.87 188.669,763.451 188.669,766.229L188.669,775.441C188.669,776.383 192.482,777.146 197.184,777.146C197.184,777.146 197.185,777.146 197.185,777.146C201.887,777.146 205.699,776.383 205.699,775.441L205.699,766.13C205.699,764.596 209.651,763.171 216.152,762.36C216.152,762.36 216.152,762.36 216.152,762.36C216.152,762.36 217.37,762.219 218.963,762.035Z" style="fill:rgb(0,111,255);"/>
            </g>
            <g transform="matrix(0.978089,0,0,4.88428,61.4571,-2973.86)">
                <path d="M218.963,762.035C223.035,761.564 224.431,760.521 222.079,759.706C222.079,759.706 222.079,759.706 222.079,759.706C219.728,758.89 214.52,758.611 210.448,759.082C208.855,759.266 207.637,759.407 207.637,759.407C207.637,759.407 207.637,759.407 207.637,759.407C195.844,760.87 188.669,763.451 188.669,766.229L188.669,775.441C188.669,776.383 192.482,777.146 197.184,777.146C197.184,777.146 197.185,777.146 197.185,777.146C201.887,777.146 205.699,776.383 205.699,775.441L205.699,766.13C205.699,764.596 209.651,763.171 216.152,762.36C216.152,762.36 216.152,762.36 216.152,762.36C216.152,762.36 217.37,762.219 218.963,762.035Z" style="fill:rgb(0,111,255);"/>
            </g>
            <g transform="matrix(0.978089,0,0,4.88428,118.663,-2937.32)">
                <path d="M218.963,762.035C223.035,761.564 224.431,760.521 222.079,759.706C222.079,759.706 222.079,759.706 222.079,759.706C219.728,758.89 214.52,758.611 210.448,759.082C208.855,759.266 207.637,759.407 207.637,759.407C207.637,759.407 207.637,759.407 207.637,759.407C195.844,760.87 188.669,763.451 188.669,766.229L188.669,775.441C188.669,776.383 192.482,777.146 197.184,777.146C197.184,777.146 197.185,777.146 197.185,777.146C201.887,777.146 205.699,776.383 205.699,775.441L205.699,766.13C205.699,764.596 209.651,763.171 216.152,762.36C216.152,762.36 216.152,762.36 216.152,762.36C216.152,762.36 217.37,762.219 218.963,762.035Z" style="fill:rgb(0,111,255);"/>
            </g>
            <g transform="matrix(0.978089,0,0,4.88428,180.259,-2897.13)">
                <path d="M218.963,762.035C223.035,761.564 224.431,760.521 222.079,759.706C222.079,759.706 222.079,759.706 222.079,759.706C219.728,758.89 214.52,758.611 210.448,759.082C208.855,759.266 207.637,759.407 207.637,759.407C207.637,759.407 207.637,759.407 207.637,759.407C195.844,760.87 188.669,763.451 188.669,766.229L188.669,775.441C188.669,776.383 192.482,777.146 197.184,777.146C197.184,777.146 197.185,777.146 197.185,777.146C201.887,777.146 205.699,776.383 205.699,775.441L205.699,766.13C205.699,764.596 209.651,763.171 216.152,762.36C216.152,762.36 216.152,762.36 216.152,762.36C216.152,762.36 217.37,762.219 218.963,762.035Z" style="fill:rgb(0,111,255);"/>
            </g>
            <g transform="matrix(0.978089,0,0,4.88428,241.856,-2856.98)">
                <path d="M218.963,762.035C223.035,761.564 224.431,760.521 222.079,759.706C222.079,759.706 222.079,759.706 222.079,759.706C219.728,758.89 214.52,758.611 210.448,759.082C208.855,759.266 207.637,759.407 207.637,759.407C207.637,759.407 207.637,759.407 207.637,759.407C195.844,760.87 188.669,763.451 188.669,766.229L188.669,775.441C188.669,776.383 192.482,777.146 197.184,777.146C197.184,777.146 197.185,777.146 197.185,777.146C201.887,777.146 205.699,776.383 205.699,775.441L205.699,766.13C205.699,764.596 209.651,763.171 216.152,762.36C216.152,762.36 216.152,762.36 216.152,762.36C216.152,762.36 217.37,762.219 218.963,762.035Z" style="fill:rgb(0,111,255);"/>
            </g>
        </g>
        <g transform="matrix(1,0,0,1,5.28175,-151.867)">
            <g transform="matrix(0.978089,0,0,4.88428,4.25156,-3010.74)">
                <path d="M218.963,762.035C223.035,761.564 224.431,760.521 222.079,759.706C222.079,759.706 222.079,759.706 222.079,759.706C219.728,758.89 214.52,758.611 210.448,759.082C208.855,759.266 207.637,759.407 207.637,759.407C207.637,759.407 207.637,759.407 207.637,759.407C195.844,760.87 188.669,763.451 188.669,766.229L188.669,779.126C188.669,780.068 192.482,780.831 197.184,780.831C197.184,780.831 197.185,780.831 197.185,780.831C201.887,780.831 205.699,780.068 205.699,779.126L205.699,766.13C205.699,764.596 209.651,763.171 216.152,762.36C216.152,762.36 216.152,762.36 216.152,762.36C216.152,762.36 217.37,762.219 218.963,762.035Z" style="fill:url(#_Linear11);"/>
            </g>
            <g transform="matrix(0.978089,0,0,4.88428,61.4571,-2973.86)">
                <path d="M218.963,762.035C223.035,761.564 224.431,760.521 222.079,759.706C222.079,759.706 222.079,759.706 222.079,759.706C219.728,758.89 214.52,758.611 210.448,759.082C208.855,759.266 207.637,759.407 207.637,759.407C207.637,759.407 207.637,759.407 207.637,759.407C195.844,760.87 188.669,763.451 188.669,766.229L188.669,779.126C188.669,780.068 192.482,780.831 197.184,780.831C197.184,780.831 197.185,780.831 197.185,780.831C201.887,780.831 205.699,780.068 205.699,779.126L205.699,766.13C205.699,764.596 209.651,763.171 216.152,762.36C216.152,762.36 216.152,762.36 216.152,762.36C216.152,762.36 217.37,762.219 218.963,762.035Z" style="fill:url(#_Linear12);"/>
            </g>
            <g transform="matrix(0.978089,0,0,4.88428,118.663,-2937.32)">
                <path d="M218.963,762.035C223.035,761.564 224.431,760.521 222.079,759.706C222.079,759.706 222.079,759.706 222.079,759.706C219.728,758.89 214.52,758.611 210.448,759.082C208.855,759.266 207.637,759.407 207.637,759.407C207.637,759.407 207.637,759.407 207.637,759.407C195.844,760.87 188.669,763.451 188.669,766.229L188.669,779.126C188.669,780.068 192.482,780.831 197.184,780.831C197.184,780.831 197.185,780.831 197.185,780.831C201.887,780.831 205.699,780.068 205.699,779.126L205.699,766.13C205.699,764.596 209.651,763.171 216.152,762.36C216.152,762.36 216.152,762.36 216.152,762.36C216.152,762.36 217.37,762.219 218.963,762.035Z" style="fill:url(#_Linear13);"/>
            </g>
            <g transform="matrix(0.978089,0,0,4.88428,180.259,-2897.13)">
                <path d="M218.963,762.035C223.035,761.564 224.431,760.521 222.079,759.706C222.079,759.706 222.079,759.706 222.079,759.706C219.728,758.89 214.52,758.611 210.448,759.082C208.855,759.266 207.637,759.407 207.637,759.407C207.637,759.407 207.637,759.407 207.637,759.407C195.844,760.87 188.669,763.451 188.669,766.229L188.669,779.126C188.669,780.068 192.482,780.831 197.184,780.831C197.184,780.831 197.185,780.831 197.185,780.831C201.887,780.831 205.699,780.068 205.699,779.126L205.699,766.13C205.699,764.596 209.651,763.171 216.152,762.36C216.152,762.36 216.152,762.36 216.152,762.36C216.152,762.36 217.37,762.219 218.963,762.035Z" style="fill:url(#_Linear14);"/>
            </g>
            <g transform="matrix(0.978089,0,0,4.88428,241.856,-2856.98)">
                <path d="M218.963,762.035C223.035,761.564 224.431,760.521 222.079,759.706C222.079,759.706 222.079,759.706 222.079,759.706C219.728,758.89 214.52,758.611 210.448,759.082C208.855,759.266 207.637,759.407 207.637,759.407C207.637,759.407 207.637,759.407 207.637,759.407C195.844,760.87 188.669,763.451 188.669,766.229L188.669,779.126C188.669,780.068 192.482,780.831 197.184,780.831C197.184,780.831 197.185,780.831 197.185,780.831C201.887,780.831 205.699,780.068 205.699,779.126L205.699,766.13C205.699,764.596 209.651,763.171 216.152,762.36C216.152,762.36 216.152,762.36 216.152,762.36C216.152,762.36 217.37,762.219 218.963,762.035Z" style="fill:url(#_Linear15);"/>
            </g>
        </g>
        <g transform="matrix(1,0,0,1,5.28175,-301.867)">
            <g transform="matrix(0.978089,0,0,4.88428,4.25156,-3010.74)">
                <path d="M218.963,762.035C223.035,761.564 224.431,760.521 222.079,759.706C222.079,759.706 222.079,759.706 222.079,759.706C219.728,758.89 214.52,758.611 210.448,759.082C208.855,759.266 207.637,759.407 207.637,759.407C207.637,759.407 207.637,759.407 207.637,759.407C195.844,760.87 188.669,763.451 188.669,766.229L188.669,779.126C188.669,780.068 192.482,780.831 197.184,780.831C197.184,780.831 197.185,780.831 197.185,780.831C201.887,780.831 205.699,780.068 205.699,779.126L205.699,766.13C205.699,764.596 209.651,763.171 216.152,762.36C216.152,762.36 216.152,762.36 216.152,762.36C216.152,762.36 217.37,762.219 218.963,762.035Z" style="fill:url(#_Linear16);"/>
            </g>
            <g transform="matrix(0.978089,0,0,4.88428,61.4571,-2973.86)">
                <path d="M218.963,762.035C223.035,761.564 224.431,760.521 222.079,759.706C222.079,759.706 222.079,759.706 222.079,759.706C219.728,758.89 214.52,758.611 210.448,759.082C208.855,759.266 207.637,759.407 207.637,759.407C207.637,759.407 207.637,759.407 207.637,759.407C195.844,760.87 188.669,763.451 188.669,766.229L188.669,779.126C188.669,780.068 192.482,780.831 197.184,780.831C197.184,780.831 197.185,780.831 197.185,780.831C201.887,780.831 205.699,780.068 205.699,779.126L205.699,766.13C205.699,764.596 209.651,763.171 216.152,762.36C216.152,762.36 216.152,762.36 216.152,762.36C216.152,762.36 217.37,762.219 218.963,762.035Z" style="fill:url(#_Linear17);"/>
            </g>
            <g transform="matrix(0.978089,0,0,4.88428,118.663,-2937.32)">
                <path d="M218.963,762.035C223.035,761.564 224.431,760.521 222.079,759.706C222.079,759.706 222.079,759.706 222.079,759.706C219.728,758.89 214.52,758.611 210.448,759.082C208.855,759.266 207.637,759.407 207.637,759.407C207.637,759.407 207.637,759.407 207.637,759.407C195.844,760.87 188.669,763.451 188.669,766.229L188.669,779.126C188.669,780.068 192.482,780.831 197.184,780.831C197.184,780.831 197.185,780.831 197.185,780.831C201.887,780.831 205.699,780.068 205.699,779.126L205.699,766.13C205.699,764.596 209.651,763.171 216.152,762.36C216.152,762.36 216.152,762.36 216.152,762.36C216.152,762.36 217.37,762.219 218.963,762.035Z" style="fill:url(#_Linear18);"/>
            </g>
            <g transform="matrix(0.978089,0,0,4.88428,180.259,-2897.13)">
                <path d="M218.963,762.035C223.035,761.564 224.431,760.521 222.079,759.706C222.079,759.706 222.079,759.706 222.079,759.706C219.728,758.89 214.52,758.611 210.448,759.082C208.855,759.266 207.637,759.407 207.637,759.407C207.637,759.407 207.637,759.407 207.637,759.407C195.844,760.87 188.669,763.451 188.669,766.229L188.669,779.126C188.669,780.068 192.482,780.831 197.184,780.831C197.184,780.831 197.185,780.831 197.185,780.831C201.887,780.831 205.699,780.068 205.699,779.126L205.699,766.13C205.699,764.596 209.651,763.171 216.152,762.36C216.152,762.36 216.152,762.36 216.152,762.36C216.152,762.36 217.37,762.219 218.963,762.035Z" style="fill:url(#_Linear19);"/>
            </g>
            <g transform="matrix(0.978089,0,0,4.88428,241.856,-2856.98)">
                <path d="M218.963,762.035C223.035,761.564 224.431,760.521 222.079,759.706C222.079,759.706 222.079,759.706 222.079,759.706C219.728,758.89 214.52,758.611 210.448,759.082C208.855,759.266 207.637,759.407 207.637,759.407C207.637,759.407 207.637,759.407 207.637,759.407C195.844,760.87 188.669,763.451 188.669,766.229L188.669,779.126C188.669,780.068 192.482,780.831 197.184,780.831C197.184,780.831 197.185,780.831 197.185,780.831C201.887,780.831 205.699,780.068 205.699,779.126L205.699,766.13C205.699,764.596 209.651,763.171 216.152,762.36C216.152,762.36 216.152,762.36 216.152,762.36C216.152,762.36 217.37,762.219 218.963,762.035Z" style="fill:url(#_Linear20);"/>
            </g>
        </g>
        <g transform="matrix(1.74232,-1.12285,3.2903,2.11234,-1237.33,253.976)">
            <g transform="matrix(70.3558,0,0,61.4822,396.113,293.755)">
                <path d="M0.031,0L-0.031,-0.125L0.438,-0.125C0.454,-0.125 0.469,-0.131 0.481,-0.143C0.494,-0.155 0.5,-0.17 0.5,-0.188L0,-0.188L0,-0.438C0,-0.454 0.006,-0.469 0.018,-0.481C0.03,-0.494 0.045,-0.5 0.063,-0.5L0.688,-0.5L0.688,-0.375L0.219,-0.375C0.21,-0.375 0.202,-0.372 0.196,-0.365C0.19,-0.359 0.188,-0.352 0.188,-0.344L0.188,-0.313L0.688,-0.313L0.688,-0.063C0.688,-0.045 0.681,-0.03 0.669,-0.018C0.657,-0.006 0.642,0 0.625,0L0.031,0Z" style="fill:rgb(255,0,223);fill-rule:nonzero;"/>
            </g>
            <g transform="matrix(70.3558,0,0,61.4822,448.879,293.755)">
                <path d="M0,0L0,-0.5L0.688,-0.5L0.688,-0.188C0.688,-0.17 0.681,-0.155 0.669,-0.143C0.657,-0.131 0.642,-0.125 0.625,-0.125L0.25,-0.125L0.25,-0.25L0.438,-0.25C0.454,-0.25 0.469,-0.256 0.481,-0.268C0.494,-0.28 0.5,-0.295 0.5,-0.313L0.5,-0.375L0.188,-0.375L0.188,0L0,0Z" style="fill:rgb(255,0,223);fill-rule:nonzero;"/>
            </g>
            <g transform="matrix(70.3558,0,0,61.4822,501.646,293.755)">
                <path d="M0.063,0C0.045,0 0.03,-0.006 0.018,-0.018C0.006,-0.03 0,-0.045 0,-0.063L0,-0.5L0.188,-0.5L0.188,-0.188C0.188,-0.17 0.193,-0.155 0.205,-0.143C0.217,-0.131 0.232,-0.125 0.25,-0.125L0.5,-0.125L0.5,-0.5L0.688,-0.5L0.688,0L0.063,0Z" style="fill:rgb(255,0,223);fill-rule:nonzero;"/>
            </g>
        </g>
    </g>
    <defs>
        <linearGradient id="_Linear1" x1="0" y1="0" x2="1" y2="0" gradientUnits="userSpaceOnUse" gradientTransform="matrix(-33.0115,10.3059,51.4647,6.61063,372.606,785.397)"><stop offset="0" style="stop-color:rgb(99,0,204);stop-opacity:1"/><stop offset="1" style="stop-color:rgb(0,168,255);stop-opacity:1"/></linearGradient>
        <linearGradient id="_Linear2" x1="0" y1="0" x2="1" y2="0" gradientUnits="userSpaceOnUse" gradientTransform="matrix(-33.0115,10.3059,51.4647,6.61063,314.119,777.847)"><stop offset="0" style="stop-color:rgb(99,0,204);stop-opacity:1"/><stop offset="1" style="stop-color:rgb(0,168,255);stop-opacity:1"/></linearGradient>
        <linearGradient id="_Linear3" x1="0" y1="0" x2="1" y2="0" gradientUnits="userSpaceOnUse" gradientTransform="matrix(-33.0115,10.3059,51.4647,6.61063,255.632,770.366)"><stop offset="0" style="stop-color:rgb(99,0,204);stop-opacity:1"/><stop offset="1" style="stop-color:rgb(0,168,255);stop-opacity:1"/></linearGradient>
        <linearGradient id="_Linear4" x1="0" y1="0" x2="1" y2="0" gradientUnits="userSpaceOnUse" gradientTransform="matrix(-33.0115,10.3059,51.4647,6.61063,192.656,762.137)"><stop offset="0" style="stop-color:rgb(99,0,204);stop-opacity:1"/><stop offset="1" style="stop-color:rgb(0,168,255);stop-opacity:1"/></linearGradient>
        <linearGradient id="_Linear5" x1="0" y1="0" x2="1" y2="0" gradientUnits="userSpaceOnUse" gradientTransform="matrix(-33.0115,10.3059,51.4647,6.61063,129.679,753.916)"><stop offset="0" style="stop-color:rgb(99,0,204);stop-opacity:1"/><stop offset="1" style="stop-color:rgb(0,168,255);stop-opacity:1"/></linearGradient>
        <linearGradient id="_Linear6" x1="0" y1="0" x2="1" y2="0" gradientUnits="userSpaceOnUse" gradientTransform="matrix(-33.0115,10.3059,51.4647,6.61063,372.606,785.397)"><stop offset="0" style="stop-color:rgb(204,0,178);stop-opacity:1"/><stop offset="1" style="stop-color:rgb(124,0,255);stop-opacity:1"/></linearGradient>
        <linearGradient id="_Linear7" x1="0" y1="0" x2="1" y2="0" gradientUnits="userSpaceOnUse" gradientTransform="matrix(-33.0115,10.3059,51.4647,6.61063,314.119,777.847)"><stop offset="0" style="stop-color:rgb(204,0,178);stop-opacity:1"/><stop offset="1" style="stop-color:rgb(124,0,255);stop-opacity:1"/></linearGradient>
        <linearGradient id="_Linear8" x1="0" y1="0" x2="1" y2="0" gradientUnits="userSpaceOnUse" gradientTransform="matrix(-33.0115,10.3059,51.4647,6.61063,255.632,770.366)"><stop offset="0" style="stop-color:rgb(204,0,178);stop-opacity:1"/><stop offset="1" style="stop-color:rgb(124,0,255);stop-opacity:1"/></linearGradient>
        <linearGradient id="_Linear9" x1="0" y1="0" x2="1" y2="0" gradientUnits="userSpaceOnUse" gradientTransform="matrix(-33.0115,10.3059,51.4647,6.61063,192.656,762.137)"><stop offset="0" style="stop-color:rgb(204,0,178);stop-opacity:1"/><stop offset="1" style="stop-color:rgb(124,0,255);stop-opacity:1"/></linearGradient>
        <linearGradient id="_Linear10" x1="0" y1="0" x2="1" y2="0" gradientUnits="userSpaceOnUse" gradientTransform="matrix(-33.0115,10.3059,51.4647,6.61063,129.679,753.916)"><stop offset="0" style="stop-color:rgb(204,0,178);stop-opacity:1"/><stop offset="1" style="stop-color:rgb(124,0,255);stop-opacity:1"/></linearGradient>
        <linearGradient id="_Linear11" x1="0" y1="0" x2="1" y2="0" gradientUnits="userSpaceOnUse" gradientTransform="matrix(-33.0115,10.3059,51.4647,6.61063,372.606,785.397)"><stop offset="0" style="stop-color:rgb(99,0,204);stop-opacity:1"/><stop offset="1" style="stop-color:rgb(0,168,255);stop-opacity:1"/></linearGradient>
        <linearGradient id="_Linear12" x1="0" y1="0" x2="1" y2="0" gradientUnits="userSpaceOnUse" gradientTransform="matrix(-33.0115,10.3059,51.4647,6.61063,314.119,777.847)"><stop offset="0" style="stop-color:rgb(99,0,204);stop-opacity:1"/><stop offset="1" style="stop-color:rgb(0,168,255);stop-opacity:1"/></linearGradient>
        <linearGradient id="_Linear13" x1="0" y1="0" x2="1" y2="0" gradientUnits="userSpaceOnUse" gradientTransform="matrix(-33.0115,10.3059,51.4647,6.61063,255.632,770.366)"><stop offset="0" style="stop-color:rgb(99,0,204);stop-opacity:1"/><stop offset="1" style="stop-color:rgb(0,168,255);stop-opacity:1"/></linearGradient>
        <linearGradient id="_Linear14" x1="0" y1="0" x2="1" y2="0" gradientUnits="userSpaceOnUse" gradientTransform="matrix(-33.0115,10.3059,51.4647,6.61063,192.656,762.137)"><stop offset="0" style="stop-color:rgb(99,0,204);stop-opacity:1"/><stop offset="1" style="stop-color:rgb(0,168,255);stop-opacity:1"/></linearGradient>
        <linearGradient id="_Linear15" x1="0" y1="0" x2="1" y2="0" gradientUnits="userSpaceOnUse" gradientTransform="matrix(-33.0115,10.3059,51.4647,6.61063,129.679,753.916)"><stop offset="0" style="stop-color:rgb(99,0,204);stop-opacity:1"/><stop offset="1" style="stop-color:rgb(0,168,255);stop-opacity:1"/></linearGradient>
        <linearGradient id="_Linear16" x1="0" y1="0" x2="1" y2="0" gradientUnits="userSpaceOnUse" gradientTransform="matrix(-33.0115,10.3059,51.4647,6.61063,372.606,785.397)"><stop offset="0" style="stop-color:rgb(204,0,178);stop-opacity:1"/><stop offset="1" style="stop-color:rgb(124,0,255);stop-opacity:1"/></linearGradient>
        <linearGradient id="_Linear17" x1="0" y1="0" x2="1" y2="0" gradientUnits="userSpaceOnUse" gradientTransform="matrix(-33.0115,10.3059,51.4647,6.61063,314.119,777.847)"><stop offset="0" style="stop-color:rgb(204,0,178);stop-opacity:1"/><stop offset="1" style="stop-color:rgb(124,0,255);stop-opacity:1"/></linearGradient>
        <linearGradient id="_Linear18" x1="0" y1="0" x2="1" y2="0" gradientUnits="userSpaceOnUse" gradientTransform="matrix(-33.0115,10.3059,51.4647,6.61063,255.632,770.366)"><stop offset="0" style="stop-color:rgb(204,0,178);stop-opacity:1"/><stop offset="1" style="stop-color:rgb(124,0,255);stop-opacity:1"/></linearGradient>
        <linearGradient id="_Linear19" x1="0" y1="0" x2="1" y2="0" gradientUnits="userSpaceOnUse" gradientTransform="matrix(-33.0115,10.3059,51.4647,6.61063,192.656,762.137)"><stop offset="0" style="stop-color:rgb(204,0,178);stop-opacity:1"/><stop offset="1" style="stop-color:rgb(124,0,255);stop-opacity:1"/></linearGradient>
        <linearGradient id="_Linear20" x1="0" y1="0" x2="1" y2="0" gradientUnits="userSpaceOnUse" gradientTransform="matrix(-33.0115,10.3059,51.4647,6.61063,129.679,753.916)"><stop offset="0" style="stop-color:rgb(204,0,178);stop-opacity:1"/><stop offset="1" style="stop-color:rgb(124,0,255);stop-opacity:1"/></linearGradient>
    </defs>
</svg>
